<svg id="svg" version="1.1" viewBox="0 0 300 46.16666666666667" width="300" height="46.16666666666667" xmlns="http://www.w3.org/2000/svg"><svg xmlns="http://www.w3.org/2000/svg"><defs><clipPath id="clip-1"><rect x="0" y="0" transform="scale(0.14648,0.14656)" width="2048" height="315" fill="none"/></clipPath></defs><g clip-path="url(#clip-1)" fill="none" fill-rule="nonzero" stroke="none" stroke-width="1" stroke-linecap="butt" stroke-linejoin="miter" stroke-miterlimit="10" stroke-dasharray="" stroke-dashoffset="0" font-family="none" font-weight="none" font-size="none" text-anchor="none" style="mix-blend-mode: normal"><path d="M0,0h69.50142h1.46558h229.03301v46.16667h-229.2731h-1.06934h-69.65757z" fill="#000000"/><path d="M0,0h69.50142h1.46558c0.7793,0.26054 1.53882,0.49446 2.18745,1.01758c2.50957,2.02395 5.31709,5.20019 7.66055,7.52913c3.66372,3.64111 7.54336,7.20008 11.03013,11.0048c0.38188,0.41667 0.75454,0.84947 1.00811,1.35862c0.55576,1.11621 0.66914,2.48934 0.26675,3.67692c-0.20039,0.59137 -0.53994,1.19154 -0.94951,1.66347c-1.74126,2.007 -18.49321,18.75847 -19.68765,19.34222c-0.52983,0.25897 -1.17935,0.4473 -1.75591,0.57393h-1.06934h-69.65757z" fill="#000000"/><path d="M69.50142,0h1.46558c0.7793,0.26054 1.53882,0.49446 2.18745,1.01758c2.50957,2.02395 5.31709,5.20019 7.66055,7.52913c3.66372,3.64111 7.54336,7.20008 11.03013,11.0048c0.38188,0.41667 0.75454,0.84947 1.00811,1.35862c0.55576,1.11621 0.66914,2.48934 0.26675,3.67692c-0.20039,0.59137 -0.53994,1.19154 -0.94951,1.66347c-1.74126,2.007 -18.49321,18.75847 -19.68765,19.34222c-0.52983,0.25897 -1.17935,0.4473 -1.75591,0.57393h-1.06934c-0.59561,-0.1319 -1.2728,-0.33694 -1.81509,-0.61526c-1.04385,-0.53583 -17.72124,-17.17092 -19.50454,-19.20299c-0.47153,-0.53729 -0.83218,-1.05084 -1.0522,-1.73733c-0.40503,-1.24841 -0.30103,-2.60644 0.28916,-3.77878c0.8748,-1.70216 16.96304,-17.03846 19.58687,-19.74056c0.48501,-0.49941 1.63345,-0.86436 2.33965,-1.09174z" fill="#f02106"/><path d="M62.55527,12.19972c3.91099,0.00758 9.46055,-0.66045 12.46875,1.62876c1.53281,1.17011 2.5355,2.90393 2.78569,4.81655c0.23628,1.87495 -0.28667,3.76647 -1.45225,5.25347c-1.41694,1.83538 -3.25532,2.6658 -5.504,2.95056c-1.24629,0.05643 -2.69048,0.01993 -3.95288,0.01568l0.01714,7.072c-1.38223,0.04573 -2.97495,0.00777 -4.37373,0.0085z" fill="#000000"/><path d="M66.90308,16.53309c1.97798,-0.00513 4.06201,-0.28125 5.75215,0.97492c1.47803,1.09862 0.9835,2.84269 -0.01143,4.0845c-1.60474,1.35774 -3.6334,1.0057 -5.73853,0.97009z" fill="#f02106"/></g></svg></svg>